<?xml version="1.0" encoding="iso-8859-1"?>
<!-- Generator: Adobe Illustrator 19.0.0, SVG Export Plug-In . SVG Version: 6.00 Build 0)  -->
<svg version="1.1" id="Capa_1" xmlns="http://www.w3.org/2000/svg" xmlns:xlink="http://www.w3.org/1999/xlink" x="0px" y="0px"
	 viewBox="0 0 511.999 511.999" style="enable-background:new 0 0 511.999 511.999;" xml:space="preserve">
<g>
	<path style="fill:#88C9DB;" d="M166.231,199.475H76.734c-18.716,0-34.431-15.316-34.113-34.029
		c0.309-18.179,15.194-32.873,33.446-32.873h15.138c8.188,0,15.234-6.292,15.619-14.471c0.412-8.732-6.547-15.941-15.189-15.941
		H77.038c-35.046,0-64.291,27.829-64.825,62.871c-0.544,35.667,28.312,64.855,63.856,64.855h143.381"/>
	<path style="fill:#88C9DB;" d="M260.505,263.124h174.758c18.716,0,34.431-15.316,34.112-34.029
		c-0.309-18.179-15.194-32.873-33.446-32.873h-15.138c-8.188,0-15.234-6.292-15.619-14.471c-0.412-8.732,6.547-15.941,15.189-15.941
		h14.599c35.046,0,64.291,27.829,64.825,62.871c0.544,35.667-28.312,64.855-63.856,64.855H260.505"/>
</g>
<rect x="193.584" y="217.256" style="fill:#347C99;" width="119.267" height="101.841"/>
<g>
	<path style="fill:#98CFD0;" d="M138.747,383.756c-35.214,0-63.864-28.649-63.864-63.864v-50.178
		c0-8.398,6.808-15.206,15.206-15.206s15.206,6.808,15.206,15.206v50.178c0,18.445,15.006,33.452,33.452,33.452
		s33.452-15.006,33.452-33.452V140.469c0-8.398,6.808-15.206,15.206-15.206s15.206,6.808,15.206,15.206v179.424
		C202.611,355.107,173.962,383.756,138.747,383.756z"/>
	<path style="fill:#98CFD0;" d="M365.31,446.098c35.214,0,63.864-28.649,63.864-63.864v-50.178c0-8.398-6.808-15.206-15.206-15.206
		s-15.206,6.808-15.206,15.206v50.178c0,18.445-15.006,33.452-33.452,33.452s-33.452-15.006-33.452-33.452V202.812
		c0-8.398-6.808-15.206-15.206-15.206s-15.206,6.808-15.206,15.206v179.424C301.446,417.45,330.096,446.098,365.31,446.098z"/>
	<path style="fill:#98CFD0;" d="M200.464,504.397c-35.214,0-63.864-28.649-63.864-63.864v-50.178
		c0-8.398,6.808-15.206,15.206-15.206s15.206,6.808,15.206,15.206v50.178c0,18.445,15.006,33.452,33.452,33.452
		s33.452-15.007,33.452-33.452V172.647c0-8.398,15.206-69.186,15.206,4.316c0,8.398,15.206-12.714,15.206-4.316v267.886
		C264.327,475.747,235.678,504.397,200.464,504.397z"/>
</g>
<path style="fill:#88C9DB;" d="M179.964,368.639c13.845-11.724,22.647-29.226,22.647-48.746v-58.779
	c0-9.453,8.383-16.651,17.743-15.326c0.105,0.015,0.211,0.029,0.316,0.045c7.613,1.064,13.245,7.64,13.245,15.328v178.707
	c0,18.716-15.316,34.431-34.029,34.113c-18.179-0.309-32.873-15.194-32.873-33.447v-49.749c0-8.188-6.292-15.234-14.471-15.619
	c-8.732-0.412-15.941,6.547-15.941,15.189v49.208c0,35.046,27.829,64.291,62.871,64.825c35.667,0.544,64.855-28.312,64.855-63.856
	V264.096c0-9.192,6.856-16.874,15.969-18.082c0.126-0.016,0.25-0.033,0.376-0.051c10.981-1.478,20.775,6.96,20.775,18.041v117.262
	c0,35.046,27.829,64.291,62.871,64.825c35.667,0.544,64.855-28.312,64.855-63.856v-49.749c0-8.188-6.292-15.234-14.471-15.619
	c-8.732-0.412-15.941,6.547-15.941,15.189v49.511c0,18.716-15.316,34.431-34.029,34.113c-18.18-0.309-32.873-15.194-32.873-33.447
	V251.722c0-12.725,5.458-24.734,14.712-33.467c15.493-14.618,24.7-35.132,24.7-62.58c0.001-66.343-53.78-148.072-120.122-148.072
	S131.027,89.332,131.027,155.675c0,28.092,9.645,48.918,25.802,63.596c9.646,8.764,15.37,21.027,15.37,34.06v65.895
	c0,18.716-15.316,34.431-34.029,34.113c-18.179-0.309-32.873-15.194-32.873-33.447v-49.749c0-8.188-6.292-15.234-14.471-15.619
	c-8.732-0.412-15.941,6.547-15.941,15.189v50.178c0,27.523,17.501,51.036,41.959,59.993"/>
<g>
	<path style="fill:#56A0BF;" d="M371.405,445.802c-2.321,0.223-4.694,0.324-7.086,0.284c-35.045-0.527-62.872-29.774-62.872-64.819
		v-117.26c0-8.1-5.231-14.791-12.337-17.224c1.075-0.355,2.2-0.618,3.355-0.77c0.122-0.02,0.253-0.03,0.375-0.051
		c10.979-1.48,20.772,6.964,20.772,18.045v117.26C313.611,414.599,338.782,442.69,371.405,445.802z"/>
	<path style="fill:#56A0BF;" d="M27.913,165.032c0.531-34.792,29.366-62.459,64.079-62.852c-0.12-0.003-0.235-0.018-0.356-0.018
		H77.038c-35.046,0-64.291,27.829-64.825,62.871c-0.544,35.667,28.311,64.855,63.856,64.855h15.701
		C56.225,229.887,27.369,200.698,27.913,165.032z"/>
	<path style="fill:#56A0BF;" d="M482.554,229.094c0.314,18.714-15.399,34.031-34.113,34.031h-13.179
		c18.714,0,34.427-15.318,34.113-34.031c-0.314-18.176-15.196-32.876-33.443-32.876h13.179
		C467.358,196.218,482.24,210.918,482.554,229.094z"/>
	<path style="fill:#56A0BF;" d="M419.005,317.726c-5.89,2.098-10.107,7.725-10.107,14.334v49.511
		c0,18.714-15.318,34.427-34.031,34.112c-1.541-0.03-3.061-0.152-4.552-0.385c16.088-2.524,28.446-16.909,28.446-33.727V332.06
		c0-8.647,7.208-15.602,15.946-15.196C416.217,316.935,417.657,317.229,419.005,317.726z"/>
	<path style="fill:#56A0BF;" d="M155.496,439.568v-49.217c0-4.795,2.22-9.073,5.697-11.851c-1.237-1.014-2.636-1.835-4.156-2.403
		c-1.409-0.537-2.92-0.862-4.501-0.933c-4.045-0.193-7.765,1.206-10.584,3.619c-3.274,2.778-5.353,6.934-5.353,11.567v49.217
		c0,35.045,27.827,64.282,62.872,64.819c3.558,0.051,7.056-0.182,10.462-0.699C178.965,499.034,155.496,471.744,155.496,439.568z"/>
	<path style="fill:#56A0BF;" d="M93.781,318.932v-49.217c0-4.795,2.22-9.073,5.697-11.851c-1.237-1.014-2.636-1.835-4.156-2.403
		c-1.409-0.537-2.92-0.862-4.501-0.933c-4.045-0.193-7.765,1.206-10.583,3.619c-3.274,2.778-5.353,6.934-5.353,11.567v49.217
		c0,35.045,27.827,64.282,62.872,64.819c3.558,0.051,7.056-0.182,10.462-0.699C117.249,378.399,93.781,351.109,93.781,318.932z"/>
	<path style="fill:#56A0BF;" d="M250.111,7.612c-43.784,1.267-79.103,82.235-79.103,148.057c0,28.101,6.437,48.923,17.213,63.602
		c6.437,8.759,0.11,21.025,0.11,34.062v65.893c0,18.714-23.376,30.646-27.269,25.283c6.833-6.295,11.131-15.368,11.131-25.283
		v-65.893c0-13.037-5.718-25.303-15.368-34.062c-16.159-14.679-25.8-35.501-25.8-63.602C131.027,89.675,184.248,8.454,250.111,7.612
		z"/>
</g>
<g>
	<ellipse style="fill:#2D2F61;" cx="188.931" cy="166.315" rx="19.767" ry="24.329"/>
	<ellipse style="fill:#2D2F61;" cx="309.049" cy="166.315" rx="19.767" ry="24.329"/>
</g>
<path d="M434.959,158.206h-14.598c-6.205,0-12.221,2.576-16.505,7.066c-4.346,4.556-6.575,10.535-6.278,16.836
	c0.573,12.177,10.77,21.716,23.213,21.716h15.138c14.012,0,25.606,11.394,25.844,25.4c0.116,6.786-2.516,13.265-7.411,18.244
	c-5.03,5.116-11.992,8.051-19.099,8.051H357.41c-4.199,0-7.603,3.404-7.603,7.603c0,4.199,3.404,7.603,7.603,7.603h77.854
	c11.158,0,22.071-4.591,29.943-12.597c7.776-7.911,11.957-18.269,11.772-29.164c-0.379-22.248-18.793-40.347-41.049-40.347h-15.138
	c-4.236,0-7.835-3.241-8.024-7.225c-0.099-2.11,0.644-4.107,2.091-5.624c1.45-1.52,3.404-2.357,5.503-2.357h14.598
	c31.087,0,56.758,24.845,57.223,55.384c0.232,15.173-5.517,29.495-16.187,40.329c-10.674,10.838-24.904,16.808-40.066,16.808h-78.52
	c-4.199,0-7.603,3.404-7.603,7.603c0,4.199,3.404,7.603,7.603,7.603h78.52c19.269,0,37.345-7.58,50.901-21.343
	c13.551-13.76,20.852-31.953,20.557-51.231C506.795,189.768,474.305,158.206,434.959,158.206z"/>
<path d="M133.981,237.49c4.199,0,7.603-3.404,7.603-7.603s-3.404-7.603-7.603-7.603H76.068c-15.164,0-29.393-5.969-40.066-16.808
	c-10.67-10.835-16.419-25.156-16.187-40.33c0.465-30.539,26.136-55.384,57.223-55.384h14.598c2.098,0,4.053,0.836,5.503,2.357
	c1.448,1.518,2.191,3.515,2.091,5.624c-0.188,3.984-3.786,7.225-8.024,7.225H76.068c-22.256,0-40.669,18.099-41.049,40.346
	c-0.186,10.897,3.995,21.254,11.773,29.165c7.871,8.006,18.784,12.597,29.942,12.597h42.039c4.199,0,7.603-3.404,7.603-7.603
	s-3.404-7.603-7.603-7.603H76.735c-7.107,0-14.068-2.935-19.099-8.051c-4.895-4.98-7.527-11.458-7.411-18.245
	c0.238-14.005,11.831-25.399,25.844-25.399h15.138c12.443,0,22.64-9.539,23.213-21.716c0.297-6.302-1.933-12.282-6.278-16.836
	c-4.284-4.491-10.3-7.066-16.505-7.066H77.04c-39.345,0-71.836,31.563-72.427,70.358c-0.295,19.277,7.006,37.472,20.557,51.232
	c13.556,13.764,31.633,21.343,50.901,21.343h57.91V237.49z"/>
<path d="M119.459,372.747c-22.113-8.099-36.971-29.34-36.971-52.855v-50.178c0-2.098,0.837-4.053,2.357-5.503
	c1.518-1.448,3.504-2.193,5.624-2.091c3.984,0.188,7.225,3.787,7.225,8.024v49.749c0,22.256,18.099,40.669,40.346,41.049
	c10.88,0.191,21.254-3.995,29.165-11.773c8.006-7.871,12.597-18.784,12.597-29.942v-65.895c0-14.909-6.51-29.374-17.861-39.687
	c-15.468-14.053-23.311-33.556-23.311-57.969c0-33.367,14.589-71.651,38.073-99.913c2.683-3.23,2.24-8.023-0.988-10.707
	c-3.23-2.683-8.024-2.241-10.707,0.988c-25.65,30.868-41.584,72.875-41.584,109.631c0,28.879,9.519,52.168,28.293,69.224
	c8.186,7.437,12.881,17.8,12.881,28.433v65.895c0,7.107-2.935,14.068-8.051,19.099c-4.978,4.895-11.462,7.534-18.245,7.411
	c-14.005-0.238-25.399-11.831-25.399-25.844v-49.749c0-12.443-9.538-22.639-21.715-23.213c-6.304-0.292-12.282,1.933-16.836,6.278
	c-4.491,4.284-7.067,10.3-7.067,16.505v50.178c0,29.87,18.867,56.849,46.949,67.133c0.863,0.316,1.746,0.465,2.614,0.465
	c3.1,0,6.012-1.91,7.14-4.991C125.428,378.558,123.401,374.19,119.459,372.747z"/>
<path d="M194.401,37.906c17.785-14.85,37.408-22.7,56.748-22.7c28.346,0,56.359,16.387,78.877,46.143
	c21.066,27.837,33.643,63.1,33.643,94.326c0,23.885-7.508,43.079-22.315,57.051c-10.866,10.253-17.099,24.467-17.099,38.997V333.9
	c0,4.199,3.404,7.603,7.603,7.603c4.199,0,7.603-3.404,7.603-7.603v-82.178c0-10.363,4.494-20.545,12.328-27.937
	c17.973-16.958,27.085-39.874,27.085-68.11C378.875,85.164,321.902,0,251.149,0c-22.948,0-45.941,9.071-66.495,26.234
	c-3.223,2.691-3.654,7.487-0.963,10.709C186.384,40.167,191.179,40.596,194.401,37.906z"/>
<path d="M415.061,309.274c-6.294-0.294-12.281,1.932-16.836,6.278c-4.491,4.284-7.066,10.3-7.066,16.505v49.511
	c0,7.107-2.935,14.069-8.051,19.099c-4.979,4.895-11.482,7.536-18.245,7.411c-14.005-0.238-25.399-11.832-25.399-25.844v-22.99
	c0-4.199-3.404-7.603-7.603-7.603c-4.199,0-7.603,3.404-7.603,7.603v22.99c0,22.255,18.099,40.669,40.346,41.049
	c10.885,0.172,21.253-3.995,29.164-11.773c8.006-7.871,12.598-18.784,12.598-29.943v-49.511c0-2.098,0.837-4.053,2.357-5.503
	c1.518-1.448,3.511-2.193,5.624-2.091c3.984,0.188,7.225,3.787,7.225,8.024v49.749c0,15.164-5.969,29.393-16.807,40.066
	c-10.834,10.67-25.119,16.428-40.33,16.187c-30.539-0.466-55.384-26.136-55.384-57.224v-117.26c0-7.435-3.21-14.506-8.804-19.398
	c-5.637-4.929-13.137-7.179-20.587-6.179l-0.363,0.049c-12.867,1.706-22.572,12.719-22.572,25.618v176.438
	c0,15.163-5.969,29.392-16.807,40.066c-10.835,10.671-25.138,16.435-40.33,16.187c-30.539-0.466-55.384-26.136-55.384-57.223
	v-49.209c0-2.098,0.837-4.053,2.357-5.503c1.519-1.448,3.512-2.192,5.624-2.091c3.984,0.188,7.225,3.787,7.225,8.024v49.749
	c0,22.256,18.099,40.669,40.346,41.049c10.9,0.187,21.254-3.995,29.164-11.773c8.006-7.871,12.598-18.784,12.598-29.942V261.16
	c0-11.453-8.51-21.28-19.787-22.856l-0.311-0.044c-6.668-0.945-13.404,1.04-18.475,5.445c-5.044,4.38-7.937,10.725-7.937,17.408
	v58.779c0,16.551-7.275,32.204-19.958,42.944c-3.204,2.714-3.603,7.512-0.889,10.715c2.714,3.204,7.512,3.603,10.715,0.889
	c16.102-13.636,25.338-33.517,25.338-54.549v-58.779c0-2.309,0.959-4.415,2.701-5.927c1.771-1.537,4.032-2.202,6.378-1.869
	l0.324,0.046c3.816,0.533,6.694,3.886,6.694,7.798v178.707c0,7.106-2.935,14.068-8.051,19.098
	c-4.98,4.896-11.445,7.538-18.245,7.413c-14.005-0.238-25.399-11.831-25.399-25.844v-49.749c0-12.443-9.539-22.64-21.716-23.213
	c-6.291-0.293-12.281,1.932-16.835,6.278c-4.491,4.284-7.067,10.3-7.067,16.505v49.209c0,39.344,31.562,71.835,70.358,72.427
	c0.374,0.006,0.747,0.008,1.12,0.008c18.861,0,36.62-7.279,50.111-20.567c13.764-13.555,21.343-31.632,21.343-50.9V264.096
	c0-5.303,4.026-9.836,9.377-10.546l0.378-0.051c3.099-0.419,6.215,0.514,8.55,2.556c2.326,2.034,3.607,4.858,3.607,7.951v117.261
	c0,39.344,31.563,71.835,70.358,72.428c19.271,0.29,37.472-7.007,51.232-20.558c13.764-13.555,21.343-31.632,21.343-50.9v-49.749
	C436.776,320.044,427.238,309.847,415.061,309.274z"/>
<path d="M336.421,166.318c0-17.607-12.278-31.932-27.37-31.932s-27.37,14.324-27.37,31.932c0,0.599,0.017,1.193,0.045,1.783
	c0.943,29.369,24.717,53.498,25.75,54.531c1.483,1.483,3.425,2.224,5.37,2.224c1.942,0,3.885-0.74,5.369-2.22
	c2.97-2.96,2.978-7.772,0.022-10.748c-0.105-0.106-5.332-5.441-10.588-13.682c0.464,0.027,0.932,0.042,1.402,0.042
	C324.143,198.25,336.421,183.926,336.421,166.318z M309.051,149.593c6.593,0,12.164,7.659,12.164,16.726
	s-5.571,16.726-12.164,16.726s-12.164-7.659-12.164-16.726S302.458,149.593,309.051,149.593z"/>
<path d="M179.75,222.633c1.484,1.484,3.431,2.227,5.376,2.227c1.945,0,3.892-0.742,5.376-2.227
	c1.032-1.033,24.808-25.161,25.75-54.531c0.028-0.591,0.045-1.185,0.045-1.783c0-17.607-12.278-31.932-27.37-31.932
	s-27.37,14.324-27.37,31.932c0,17.607,12.278,31.932,27.37,31.932c0.47,0,0.938-0.014,1.402-0.042
	c-5.253,8.239-10.478,13.57-10.579,13.672C176.781,214.85,176.781,219.664,179.75,222.633z M188.928,183.044
	c-6.593,0-12.164-7.659-12.164-16.726s5.571-16.726,12.164-16.726c6.593,0,12.164,7.659,12.164,16.726
	S195.521,183.044,188.928,183.044z"/>
<g>
</g>
<g>
</g>
<g>
</g>
<g>
</g>
<g>
</g>
<g>
</g>
<g>
</g>
<g>
</g>
<g>
</g>
<g>
</g>
<g>
</g>
<g>
</g>
<g>
</g>
<g>
</g>
<g>
</g>
</svg>
